PathFileType  4	(X/Y/Z) C:\Users\antoi\Documents\MyRepositories\mobilecap\ResultsAnalysis
DataRate	CameraRate	NumFrames	NumMarkers	Units	OrigDataRate	OrigDataStartFrame	OrigNumFrames
100.0	100.0	7	51	mm	100.0	1	137
Frame#	Time	r_knee			r_shank_antsup			r_ankle			r_calc			r_5meta			r_toe			L_knee			L_shank_antsup			L_ankle			L_calc			L_5meta			L_toe			r_sh2			r_sh3			r_sh4			L_sh2			L_sh3			r_thigh1			r_thigh2			r_thigh3			r_thigh4			r_thigh5			L_thigh1			L_thigh2			L_thigh3			L_thigh4			r.ASIS			r.PSIS			L.ASIS			L.PSIS			C7			R_Shoulder			L_Shoulder			R_Sternum			L_Sternum			R_humerus			R_elbow_med			R_elbow_lat			R_forearm			R_wrist_radius			R_wrist_ulna			L_humerus			L_elbow_med			L_elbow_lat			L_forearm			L_wrist_radius			L_wrist_ulna			R_HJC			L_HJC			R_HJC_reg			L_HJC_reg			
		X1	Y1	Z1	X2	Y2	Z2	X3	Y3	Z3	X4	Y4	Z4	X5	Y5	Z5	X6	Y6	Z6	X7	Y7	Z7	X8	Y8	Z8	X9	Y9	Z9	X10	Y10	Z10	X11	Y11	Z11	X12	Y12	Z12	X13	Y13	Z13	X14	Y14	Z14	X15	Y15	Z15	X16	Y16	Z16	X17	Y17	Z17	X18	Y18	Z18	X19	Y19	Z19	X20	Y20	Z20	X21	Y21	Z21	X22	Y22	Z22	X23	Y23	Z23	X24	Y24	Z24	X25	Y25	Z25	X26	Y26	Z26	X27	Y27	Z27	X28	Y28	Z28	X29	Y29	Z29	X30	Y30	Z30	X31	Y31	Z31	X32	Y32	Z32	X33	Y33	Z33	X34	Y34	Z34	X35	Y35	Z35	X36	Y36	Z36	X37	Y37	Z37	X38	Y38	Z38	X39	Y39	Z39	X40	Y40	Z40	X41	Y41	Z41	X42	Y42	Z42	X43	Y43	Z43	X44	Y44	Z44	X45	Y45	Z45	X46	Y46	Z46	X47	Y47	Z47	X48	Y48	Z48	X49	Y49	Z49	X50	Y50	Z50	X51	Y51	Z51	

1	0.00000000	-35.10926	530.07638	-53.53487	37.36312	462.01080	-61.02677	121.49575	128.07014	-90.91468	70.18055	61.48157	-141.79242	263.07655	99.65995	-54.80697	300.08455	157.92577	-113.52840	-361.27434	515.31092	-359.22225	-393.48129	424.01189	-374.28383	-569.60364	143.66511	-301.03160	-665.49106	109.06777	-246.01313	-482.18007	48.82768	-331.89670	-418.95343	63.34363	-269.89970	65.96002	355.28325	-39.74458	-30.11058	449.90902	-23.73238	-13.44777	334.82773	-21.90611	-473.56471	468.33685	-370.47464	-520.58846	356.46352	-356.22184	-101.60867	850.89590	-41.39727	-55.63565	752.90192	-42.61432	-94.71703	708.40304	-9.09363	-201.34961	802.86262	-23.30053	-146.55031	699.51005	-26.08478	-207.74192	788.39871	-383.12139	-231.23674	650.71130	-364.41114	-316.45136	802.36105	-398.89910	-342.50465	668.37348	-384.25903	-155.29164	1041.19563	-75.67598	-336.89796	1027.76832	-139.25883	-156.83906	1035.13347	-331.34474	-340.51542	1037.82953	-247.79707	-252.28499	1583.21708	-233.31542	-214.59221	1522.57272	-51.78861	-189.15661	1496.73360	-389.03898	-147.87108	1482.50795	-183.23089	-143.38331	1474.20893	-238.86883	-259.89648	1366.93281	16.90374	-380.79266	1193.71880	-48.21854	-384.76044	1211.88829	33.93832	-391.17917	1043.01540	74.84779	-381.11798	944.90169	78.52972	-422.63017	964.30143	91.24563	-167.17552	1385.81497	-474.48624	-136.26757	1140.25753	-464.34091	-118.86581	1175.45970	-538.50615	-46.82854	1150.43570	-557.32551	95.69104	1042.25616	-571.58967	67.58658	1017.11853	-591.58246	-219.56756	914.89490	-94.29649	-230.81966	919.39668	-300.90076	-197.17048	937.10623	-119.36957	-202.76885	952.67781	-287.34721	
2	0.01000000	-22.20801	528.73846	-54.73590	48.87818	459.49833	-63.43157	128.21727	125.82445	-93.00220	74.14954	63.31096	-142.81330	268.22814	92.84759	-57.40029	307.29176	148.96418	-116.78414	-346.14943	514.52811	-358.18483	-379.66010	424.25564	-373.84831	-564.21404	150.11357	-300.74760	-660.91648	118.88625	-245.48428	-480.63976	49.99526	-331.82839	-416.91119	62.33149	-269.88507	76.93626	352.49826	-42.22065	-17.89061	448.25301	-25.16421	-2.52161	333.04565	-23.44369	-458.38964	471.08270	-369.41920	-508.85667	360.73299	-355.13996	-83.59492	850.75754	-42.27732	-39.07814	751.77892	-43.82136	-79.39591	708.01121	-10.94293	-184.12738	803.92838	-23.05669	-131.70449	699.98652	-27.50194	-192.97923	787.63678	-382.74126	-215.55354	650.16483	-364.06832	-301.48926	801.74505	-397.59083	-326.96911	667.59937	-382.84226	-137.64915	1041.99543	-75.92464	-319.93816	1028.23836	-137.46514	-141.65542	1034.79611	-331.50786	-324.55731	1037.47277	-246.04974	-237.99263	1583.65995	-232.47302	-199.62633	1522.60040	-51.18160	-175.59408	1497.24898	-388.71371	-133.33548	1483.08992	-182.90812	-128.80404	1474.90929	-238.55669	-244.92116	1366.77795	17.37711	-367.03735	1194.19000	-48.02405	-370.37136	1212.07228	34.18185	-378.10610	1043.24204	74.73074	-368.87436	944.92123	77.94900	-410.41849	964.77844	90.97701	-154.33452	1386.05503	-474.24305	-122.70141	1140.45689	-463.93108	-105.82658	1175.58612	-538.18195	-33.53843	1151.28779	-557.07816	110.27742	1044.79982	-570.81234	82.62471	1019.42574	-590.77224	-201.92124	915.58951	-93.22139	-215.25666	919.05780	-299.69981	-180.07555	938.02936	-118.43159	-187.22178	952.31685	-286.44255	
3	0.02000000	-9.38924	527.59843	-55.66420	60.33932	457.18402	-65.46159	134.72576	123.65652	-94.82828	77.97276	65.08656	-143.68608	273.16635	86.06291	-59.82635	314.19875	140.13700	-119.79564	-330.26069	513.80207	-357.28874	-365.34029	424.64004	-373.50425	-558.23284	156.86059	-300.40777	-655.68985	129.26157	-244.82550	-478.94000	51.37826	-331.70045	-414.74683	61.40224	-269.82398	87.73655	349.89501	-44.35916	-5.85241	446.76428	-26.32905	8.21705	331.43364	-24.77392	-442.61070	473.96255	-368.33174	-496.53288	365.20103	-353.99046	-65.74663	850.73365	-42.98238	-22.72029	750.79076	-44.83688	-64.14325	707.71044	-12.47219	-167.06228	805.18074	-22.73739	-116.98020	700.65535	-28.63204	-177.74262	787.03909	-382.26002	-199.34626	649.69579	-363.73282	-286.11798	801.12325	-396.32769	-310.92794	666.81018	-381.56315	-120.02949	1042.95356	-76.13745	-302.95820	1028.92897	-135.68516	-126.36727	1034.61490	-331.58737	-308.52351	1037.28992	-244.32685	-223.65589	1584.25726	-231.66907	-184.58040	1522.84605	-50.60912	-162.03399	1497.92534	-388.41999	-118.73683	1483.84607	-182.62725	-114.19007	1475.77251	-238.28887	-229.81385	1366.85646	17.84971	-353.05021	1194.83939	-47.77715	-355.78058	1212.44188	34.48065	-364.66599	1043.63367	74.65170	-356.19761	945.12083	77.37588	-397.74651	965.39709	90.76783	-141.58377	1386.39679	-474.01103	-109.42133	1140.74050	-463.40732	-93.05734	1175.73882	-537.77729	-20.55479	1152.09559	-556.75872	124.47493	1047.22341	-569.97942	97.26386	1021.58883	-589.84954	-184.30044	916.46538	-92.10559	-199.62242	918.88585	-298.45889	-163.02313	939.18558	-117.42605	-171.62804	952.11528	-285.44302	
4	0.03000000	3.28281	526.82331	-56.09237	71.68696	455.22606	-66.82062	140.82925	121.63844	-96.18601	81.51161	66.76520	-144.30649	277.69325	79.36488	-61.90616	320.56089	131.57482	-122.31840	-313.00781	513.15238	-356.65717	-350.08662	425.27141	-373.33466	-551.14151	164.14091	-299.98696	-649.20987	140.65507	-243.94923	-476.94267	53.17111	-331.46479	-412.36280	60.62925	-269.68461	98.21281	347.62133	-45.87931	5.86560	445.59109	-26.99024	18.61061	330.14318	-25.68510	-425.71314	477.07377	-367.19656	-483.10521	370.01751	-352.73398	-48.21205	850.94156	-43.36588	-6.71423	750.07507	-45.50737	-48.99847	707.61038	-13.41022	-150.27546	806.77210	-22.24385	-102.45306	701.67563	-29.21770	-161.67755	786.72664	-381.62364	-182.18993	649.36657	-363.43798	-270.02005	800.48077	-395.15170	-293.97289	665.98631	-380.54560	-102.46765	1044.20453	-76.27391	-285.96051	1030.00819	-133.95028	-110.89966	1034.70071	-331.51070	-292.36954	1037.41649	-242.66727	-209.23993	1585.12814	-230.93582	-169.38337	1523.48374	-50.10124	-148.48122	1498.88311	-388.18076	-104.02542	1484.90555	-182.42538	-99.52122	1476.91699	-238.10292	-214.46651	1367.35745	18.32188	-338.64598	1195.81376	-47.43608	-340.82109	1213.14976	34.87936	-350.55687	1044.32641	74.64465	-342.73240	945.64620	76.82438	-384.24209	966.27811	90.67074	-128.98401	1386.92351	-473.79397	-96.65807	1141.17499	-462.68129	-80.77502	1175.94103	-537.22752	-8.12067	1152.82444	-556.30630	137.97578	1049.42466	-569.04509	111.17639	1023.48814	-588.72771	-166.74808	917.67052	-90.91145	-183.86392	919.00394	-297.14284	-146.05190	940.74757	-116.29500	-155.95138	952.19507	-284.27243	
5	0.04000000	15.75728	526.52253	-55.87520	82.84768	453.71722	-67.34307	146.37108	119.83193	-96.96278	84.64518	68.31613	-144.63841	281.64309	72.87104	-63.46688	326.21659	123.41539	-124.13888	-294.06160	512.55098	-356.37740	-333.58264	426.19963	-373.40428	-542.54627	172.07486	-299.50601	-640.96782	153.35566	-242.83617	-474.53545	55.53502	-331.09449	-409.69130	60.07551	-269.46199	108.25600	345.77070	-46.60127	17.18719	444.84558	-26.97417	28.54732	329.28985	-25.97710	-407.34352	480.45115	-366.02509	-468.20668	375.24838	-351.37634	-31.11333	851.49346	-43.33136	8.85499	749.76345	-45.73954	-33.97854	707.84075	-13.58167	-133.84101	808.79586	-21.45584	-88.14210	703.14722	-29.06867	-144.63253	786.75374	-380.84704	-163.83847	649.21651	-363.24965	-253.04182	799.79026	-394.09501	-275.87095	665.10128	-379.88105	-85.02780	1045.83863	-76.29043	-268.99312	1031.55779	-132.31564	-95.23742	1035.09373	-331.22696	-276.11138	1037.92302	-241.12859	-194.73504	1586.33300	-230.29660	-153.99068	1524.61266	-49.68226	-134.95282	1500.17595	-388.00693	-89.18343	1486.32421	-182.33224	-84.81150	1478.38963	-238.02664	-198.81774	1368.39319	18.79321	-323.72556	1197.20481	-46.97548	-325.39385	1214.29053	35.40607	-335.59383	1045.40478	74.73809	-328.26017	946.58372	76.32005	-369.68421	967.50115	90.72803	-116.55965	1387.68421	-473.58541	-84.56019	1141.79588	-461.70497	-69.11713	1176.20808	-536.49338	3.61464	1153.45251	-555.67939	150.59061	1051.32639	-567.98113	124.14373	1025.04120	-587.36205	-149.34252	919.29470	-89.60999	-167.97061	919.46503	-295.72719	-129.20751	942.79164	-114.99808	-140.18702	952.61634	-282.88662	
6	0.05000000	27.99060	526.73693	-54.96531	93.74284	452.68155	-67.00468	151.24280	118.28480	-97.15396	87.28479	69.71511	-144.71088	284.90153	66.76473	-64.39049	331.08624	115.81513	-125.13709	-273.35284	511.93743	-356.48911	-315.63427	427.41718	-373.75191	-532.17702	180.66018	-299.02727	-630.54539	167.47589	-241.53540	-471.62401	58.60731	-330.58663	-406.68673	59.79767	-269.18192	117.80369	344.38069	-46.46462	28.10786	444.59608	-26.19532	37.97432	328.94411	-25.48999	-387.31202	484.06533	-364.85472	-451.61979	380.87394	-349.96496	-14.52322	852.48358	-42.84033	23.97822	749.96672	-45.49973	-19.09375	708.53462	-12.93883	-117.78039	811.28427	-20.25865	-74.01838	705.10642	-28.09598	-126.65327	787.11086	-380.00053	-144.23192	649.26142	-363.25102	-235.19773	799.01297	-393.16901	-256.56986	664.11851	-379.60809	-67.79525	1047.89530	-76.14695	-252.14061	1033.57202	-130.85094	-79.42232	1035.76643	-330.71286	-259.81920	1038.80973	-239.77865	-180.15179	1587.87239	-229.76580	-138.38116	1526.25159	-49.37189	-121.47162	1501.79037	-387.89979	-74.22122	1488.08535	-182.37014	-70.10562	1480.16783	-238.07956	-182.84363	1369.99074	19.25912	-308.27229	1199.04316	-46.38403	-309.46635	1215.89410	36.07442	-319.70859	1046.89453	74.95682	-312.69920	947.95509	75.90135	-353.99894	969.09396	90.97255	-104.29814	1388.68747	-473.37050	-73.18670	1142.60379	-460.46817	-58.13494	1176.54317	-535.56019	14.60026	1153.96763	-554.85732	162.24913	1052.87478	-566.77862	136.06784	1026.20220	-585.74913	-132.18529	921.36456	-88.18453	-151.97236	920.25226	-294.20062	-112.53942	945.30154	-113.51372	-124.36278	953.37453	-281.27450	
7	0.06000000	39.93636	527.44440	-53.41427	104.29876	452.08887	-65.90905	155.39330	117.02924	-96.85201	89.38622	70.93775	-144.59527	287.42255	61.27474	-64.66695	335.15343	108.94850	-125.34795	-251.00047	511.24921	-356.98158	-296.15384	428.87327	-374.38314	-519.87053	189.79180	-298.63408	-617.60701	182.97429	-240.14406	-468.11427	62.51537	-329.96044	-403.30406	59.85468	-268.89558	126.83751	343.44434	-45.53090	38.68371	444.86657	-24.67509	46.89567	329.12913	-24.14394	-365.56521	487.83754	-363.73949	-433.25439	386.80673	-348.57096	1.54311	853.96979	-41.90704	38.70144	750.75471	-44.79812	-4.37429	709.79145	-11.56873	-102.08204	814.21823	-18.58807	-60.04241	707.53473	-26.33520	-107.92856	787.74631	-379.17348	-123.46896	649.49941	-363.51308	-216.63755	798.10699	-392.35554	-236.16625	662.99489	-379.69842	-50.86486	1050.36718	-75.81595	-235.50633	1035.97851	-129.62149	-63.53959	1036.64790	-329.97392	-243.59925	1040.01875	-238.67847	-165.51440	1589.70262	-229.35131	-122.55382	1528.35182	-49.18803	-108.05998	1503.66353	-387.85789	-59.17144	1490.12144	-182.55583	-55.46632	1482.18201	-238.27620	-166.54327	1372.10156	19.70664	-292.32997	1201.30207	-45.65733	-293.05747	1217.93133	36.88977	-302.92403	1048.76678	75.32422	-296.07391	949.72605	75.61662	-337.22194	971.02999	91.43000	-92.16618	1389.90323	-473.13265	-62.52429	1143.56891	-458.98550	-47.81231	1176.93418	-534.43102	24.86017	1154.35972	-553.83771	172.96876	1054.03212	-565.44479	146.95205	1026.95214	-583.91533	-115.38166	923.85291	-86.63318	-135.93141	921.29948	-292.56509	-96.09972	948.19791	-111.83752	-108.53702	954.41546	-279.45182	
